# xmcd
# Copyright (C) 1995-1998 Ti Kan
#
# Track frame offsets:
#       150
#       20867
#       33380
#       48304
#       60431
#       79303
#       92096
#       111329
#       120868
#       132594
#       156432
#       190315
#       221173
#
# Disc length: 3853 seconds
#
# Revision: 0
# Processed by: cddbd v1.5.2PL0 Copyright (c) Steve Scherf et al.
# Submitted via: CD-Transfer v1.0
#
DISCID=ba0f0b0d
DTITLE=Kasettendeck - Egal Wirst Du Nie
DYEAR=14
DGENRE=
TTITLE0=Blick
TTITLE1=Der Puls Schlägt
TTITLE2=Bilder Von Dir
TTITLE3=Sommer
TTITLE4=Ich Komm Nach Haus
TTITLE5=Komm Raus
TTITLE6=Alles Deutet Auf Uns Zwei
TTITLE7=Komm Rocky Tanz Mit Mir Heute Nacht In St. Tropez
TTITLE8=Ich Will Nur Dich
TTITLE9=Egal Wirst Du Nie
TTITLE10=Tricks
TTITLE11=Abschiedsgeschenk
TTITLE12=Data Track
EXTD=
EXTT0=
EXTT1=
EXTT2=
EXTT3=
EXTT4=
EXTT5=
EXTT6=
EXTT7=
EXTT8=
EXTT9=
EXTT10=
EXTT11=
EXTT12=
PLAYORDER=
